# xmcd CD database file
#
# Track frame offsets:
#	150
#	23512
#	35916
#	51795
#	85201
#	100583
#	118178
#	135171
#	143198
#	155377
#	172496
#	189306
#	205642
#
# Disc length: 2923 seconds
#
# Revision: 1
# Processed by: cddbd v1.5.2PL0 Copyright (c) Steve Scherf et al.
# Submitted via: CDex 1.70beta2
#
DISCID=aa0b690d
DTITLE=内藤やす子 - ないないづくし (紙ジャケット仕様) COCP-38389
DYEAR=2014
DGENRE=Pop
TTITLE0=ないないづくし
TTITLE1=とまり木 
TTITLE2=想い出ぼろぼろ 
TTITLE3=手のひらの中の地図 
TTITLE4=心はどしゃ降り 
TTITLE5=淋しい街に風が吹く 
TTITLE6=ジントニックをもう一杯 
TTITLE7=ぬけがら 
TTITLE8=いくじなし 
TTITLE9=さよならの町 
TTITLE10=弟よ (ボーナス・トラック)
TTITLE11=淋しい天使 (ボーナス・トラック)
TTITLE12=ひとりぼっち (ボーナス・トラック)
EXTD=YEAR: 2014
EXTT0=
EXTT1=
EXTT2=
EXTT3=
EXTT4=
EXTT5=
EXTT6=
EXTT7=
EXTT8=
EXTT9=
EXTT10=
EXTT11=
EXTT12=
PLAYORDER=
